<svg width="259.825" height="219.061" viewBox="0 0 259.825 219.061">
  
  <g id="Grupo_2" data-name="Grupo 2">
    <g id="Grupo_1" data-name="Grupo 1" clip-path="url(#clip-path)">
      <path id="Caminho_1" data-name="Caminho 1" d="M179.752,73.7s-.81-17.139-.405-21.457c.388-4.681,2.7-8.907,5.128-10.8s6.613-2.7,9.716-3.239,14.17-.54,17.948.675,7.287,1.484,7.962,3.239,3.239,7.287,3.509,12.685.27,7.422,0,9.177-2.429,6.208-2.429,6.208l-7.962,7.422-14.035-.27L187.849,76.13Z" transform="translate(-70.389 -14.87)" fill="#002afb"/>
    </g>
  </g>
  <g id="Grupo_4" data-name="Grupo 4" transform="translate(108.844 22.994)">
    <g id="Grupo_3" data-name="Grupo 3" clip-path="url(#clip-path-2)">
      <path id="Caminho_2" data-name="Caminho 2" d="M176.571,67.29a7.832,7.832,0,0,0,.691-1.858c.332-1.259,1.491-2.578,1.1-4.085a10.686,10.686,0,0,1-.2-4.943c.4-1.259.44-3.509,1.475-5.8s1.374-2.961,1.724-3.981.435-1.372-.24-1.777a3.088,3.088,0,0,0-2.339-.36c-.36.27-3.734,3.509-3.734,3.509l-.65,4.723-.475,3.913.475,4.5Z" transform="translate(-177.149 -40.417)" fill="#d5ddff"/>
    </g>
  </g>
  <g id="Grupo_6" data-name="Grupo 6">
    <g id="Grupo_5" data-name="Grupo 5" clip-path="url(#clip-path)">
      <path id="Caminho_4" data-name="Caminho 4" d="M187.267,116.315s-6.073,24.021-6.342,26.855,0,16.869,3.171,17.949,25.573,1.215,30.836,1.08,11.606-3.239,13.495-6.073.27-6.613.4-7.558-3.644-7.017-3.644-7.017-4.588-13.765-5.533-15.789-2.159-5.8-2.159-5.8l-.878-5.8-10.864-2.834-11.335,1.889Z" transform="translate(-71.022 -43.719)" fill="#fff"/>
    </g>
  </g>
  <g id="Grupo_8" data-name="Grupo 8" transform="translate(109.823 67.603)">
    <g id="Grupo_7" data-name="Grupo 7" clip-path="url(#clip-path-4)">
      <path id="Caminho_5" data-name="Caminho 5" d="M178.516,104.036s4.275,21.2,20.7,25.461,39.226-3.419,39.226-3.419l-1.219-4.142-5.1-8.444-21.453-7.475-30.545-2.136Z" transform="translate(-179.93 -108.4)" fill="#040c2c"/>
    </g>
  </g>
 
</svg>
