<svg xmlns="http://www.w3.org/2000/svg" xmlns:xlink="http://www.w3.org/1999/xlink" width="288" height="138" viewBox="0 0 288 138">
  <defs>
    <clipPath id="clip-path">
      <rect id="Retângulo_24" data-name="Retângulo 24" width="288" height="138" rx="8" transform="translate(16 156)" fill="#002bff"/>
    </clipPath>
    <clipPath id="clip-path-2">
      <rect id="Retângulo_27" data-name="Retângulo 27" width="145.73" height="276.887" fill="#4562ef"/>
    </clipPath>
    <clipPath id="clip-path-3">
      <rect id="Retângulo_26" data-name="Retângulo 26" width="41.848" height="41.848" fill="none"/>
    </clipPath>
  </defs>
  <g id="dashboard" transform="translate(-16 -131)">
    <rect id="Retângulo_28" data-name="Retângulo 28" width="288" height="138" rx="8" transform="translate(16 131)" fill="#002bff"/>
    <g id="Grupo_de_máscara_1" data-name="Grupo de máscara 1" transform="translate(0 -25)" clip-path="url(#clip-path)">
      <g id="Grupo_46" data-name="Grupo 46" transform="matrix(-0.259, -0.966, 0.966, -0.259, 45.133, 334.943)" clip-path="url(#clip-path-2)">
        <path id="Caminho_113" data-name="Caminho 113" d="M68.007,33.412V0C55.414,0,42.042,1.3,32.9,3.92A44.548,44.548,0,0,0,9.12,19.974C3.18,28.051,0,39.7,0,54.914V242.883l38.861-.028v-188c0-6.649,1.839-11.651,4.331-14.863a15.2,15.2,0,0,1,9.441-5.875c3.8-.709,15.374-.709,15.374-.709" transform="translate(0 0)" fill="#4562ef"/>
        <path id="Caminho_114" data-name="Caminho 114" d="M0,209.472v33.412c12.594,0,25.966-1.3,35.106-3.92a44.548,44.548,0,0,0,23.781-16.054c5.94-8.077,9.12-19.73,9.12-34.94V0L29.146.028v188c0,6.649-1.839,11.651-4.331,14.863a15.2,15.2,0,0,1-9.441,5.875c-3.8.709-15.374.709-15.374.709" transform="translate(77.723 34.004)" fill="#4562ef"/>
      </g>
    </g>
    <g id="Grupo_59" data-name="Grupo 59">
      <text id="Suas_WillCoins" data-name="Suas WillCoins" transform="translate(123 184)" fill="#fff" font-size="10" font-family="SegoeUI, Segoe UI"><tspan x="0" y="0">Suas WillCoins</tspan></text>
      <g id="Grupo_45" data-name="Grupo 45" transform="translate(6.994 -28.156)">
        <text id="_2500_00" data-name="2500,00" transform="translate(112.363 251.355)" fill="#fff" font-size="34" font-family="SegoeUI-Bold, Segoe UI" font-weight="700"><tspan x="0" y="0">2500,00</tspan></text>
        <g id="Grupo_44" data-name="Grupo 44" transform="translate(63.553 219)">
          <g id="Grupo_43" data-name="Grupo 43" clip-path="url(#clip-path-3)">
            <path id="Caminho_107" data-name="Caminho 107" d="M44.916,63.977a19.06,19.06,0,1,1,13.478-5.583,18.935,18.935,0,0,1-13.478,5.583" transform="translate(-23.993 -23.993)" fill="#002afb"/>
            <path id="Caminho_108" data-name="Caminho 108" d="M33.317,15.158a18.16,18.16,0,1,1-12.841,5.319,18.04,18.04,0,0,1,12.841-5.319m0-1.8A19.961,19.961,0,1,0,47.432,19.2a19.831,19.831,0,0,0-14.115-5.847" transform="translate(-12.393 -12.393)" fill="#002ba5"/>
            <path id="Caminho_109" data-name="Caminho 109" d="M20.924,1.925A19,19,0,0,1,28.318,38.43,19,19,0,0,1,13.529,3.417a18.877,18.877,0,0,1,7.395-1.492m0-1.925A20.924,20.924,0,1,0,41.848,20.924,20.924,20.924,0,0,0,20.924,0" fill="#ff5f00"/>
            <path id="Caminho_110" data-name="Caminho 110" d="M206.942,184.037a12.084,12.084,0,0,1-2.984-.345,3.864,3.864,0,0,1-2.061-1.39,5.1,5.1,0,0,1-.791-3.05V162.59l3.234,0v16.665a2.291,2.291,0,0,0,.411,1.4,1.477,1.477,0,0,0,.914.568,10.857,10.857,0,0,0,1.277.065Z" transform="translate(-186.612 -150.872)" fill="#fff"/>
            <path id="Caminho_111" data-name="Caminho 111" d="M299.976,141.921V125.256a2.291,2.291,0,0,0-.411-1.4,1.477,1.477,0,0,0-.914-.568,10.824,10.824,0,0,0-1.276-.065v-2.748a12.085,12.085,0,0,1,2.984.345,3.865,3.865,0,0,1,2.061,1.39,5.1,5.1,0,0,1,.791,3.049v16.662Z" transform="translate(-275.942 -111.794)" fill="#fff"/>
            <path id="Caminho_112" data-name="Caminho 112" d="M144.644,189.008a4.119,4.119,0,0,1-2.394-.814,12.786,12.786,0,0,1-2.234-2.266l2.3-1.8a11.525,11.525,0,0,0,.888,1.025,1.553,1.553,0,0,0,1.059.389,2.414,2.414,0,0,0,1.432-.566l13.875-10.846,2.114,2.7-13.873,10.845a5.393,5.393,0,0,1-3.057,1.327l-.108,0" transform="translate(-129.925 -161.584)"/>
          </g>
        </g>
      </g>
    </g>
  </g>
</svg>
