<svg id="Grupo_36" data-name="Grupo 36" xmlns="http://www.w3.org/2000/svg" xmlns:xlink="http://www.w3.org/1999/xlink" width="118.239" height="27.381" viewBox="0 0 118.239 27.381">
  <defs>
    <clipPath id="clip-path">
      <rect id="Ret창ngulo_21" data-name="Ret창ngulo 21" width="118.239" height="27.381" fill="none"/>
    </clipPath>
  </defs>
  <g id="Grupo_35" data-name="Grupo 35" clip-path="url(#clip-path)">
    <path id="Caminho_92" data-name="Caminho 92" d="M213.545,89.08l-3.2-9.352-3.2,9.352H204.6l-4.42-12h2.436l3.277,9.925,3.013-9.4a.755.755,0,0,1,.721-.526h1.447a.755.755,0,0,1,.721.525l3.036,9.4,3.229-9.926h2.413l-4.374,12Z" transform="translate(-173.905 -66.965)"/>
    <rect id="Ret창ngulo_20" data-name="Ret창ngulo 20" width="2.364" height="11.996" transform="translate(48.447 10.119)"/>
    <path id="Caminho_93" data-name="Caminho 93" d="M415.5,57.07a2.9,2.9,0,0,1-2.03-.824,3.41,3.41,0,0,1-.88-2.595V40.224h2.364V53.363c0,1.281.685,1.55,1.26,1.55a2.472,2.472,0,0,0,1.123-.313l.322,1.885a4.7,4.7,0,0,1-2.159.585" transform="translate(-358.427 -34.944)"/>
    <path id="Caminho_94" data-name="Caminho 94" d="M466.487,57.07a2.9,2.9,0,0,1-2.03-.824,3.411,3.411,0,0,1-.88-2.595V40.224h2.364V53.363c0,1.281.685,1.55,1.26,1.55a2.473,2.473,0,0,0,1.123-.313l.322,1.885a4.7,4.7,0,0,1-2.159.585" transform="translate(-402.722 -34.944)"/>
    <path id="Caminho_95" data-name="Caminho 95" d="M514.481,57.07a5.824,5.824,0,0,1-3.167-.807,5.374,5.374,0,0,1-1.972-2.31,7.313,7.313,0,0,1-.606-2.939,6.468,6.468,0,0,1,.76-3.243,5.177,5.177,0,0,1,2.045-2.023,6.007,6.007,0,0,1,2.893-.7,4.642,4.642,0,0,1,4.243,2.173l.243.393V40.224h2.387V57.058h-2.387V54.525l-.243.4a4.579,4.579,0,0,1-4.2,2.149m.553-10.023a3.573,3.573,0,0,0-2.853,1.157,4.6,4.6,0,0,0-1.057,2.9,4.518,4.518,0,0,0,1,2.885,4.168,4.168,0,0,0,5.776-.055,4.19,4.19,0,0,0,1.023-2.824A4.277,4.277,0,0,0,517.9,48.26a3.571,3.571,0,0,0-2.865-1.213" transform="translate(-441.954 -34.944)"/>
    <path id="Caminho_96" data-name="Caminho 96" d="M628.918,89.016a4.14,4.14,0,0,1-3.1-1.11,3.616,3.616,0,0,1-1.081-2.591,3.248,3.248,0,0,1,1.064-2.481,4.989,4.989,0,0,1,3.436-.987h3.841v-.131a3.771,3.771,0,0,0-.169-1.255c-.323-1.048-1.295-1.583-2.888-1.583a6.823,6.823,0,0,0-3.574,1.138L625.5,78.45A9.254,9.254,0,0,1,630.6,77a5.008,5.008,0,0,1,3.685,1.162,4.112,4.112,0,0,1,1.138,2.987L635.445,89H633.1V87.218l-.23.263a5,5,0,0,1-3.956,1.535m.714-5.553c-1.769,0-2.666.579-2.666,1.721a1.706,1.706,0,0,0,.739,1.527,3.147,3.147,0,0,0,1.766.471,4.13,4.13,0,0,0,2.545-.7,2.6,2.6,0,0,0,1.064-1.745V83.463Z" transform="translate(-542.729 -66.889)"/>
    <path id="Caminho_97" data-name="Caminho 97" d="M726.76,89.016a7.433,7.433,0,0,1-4.766-1.609l.825-1.609a6.77,6.77,0,0,0,4.055,1.406c1.417,0,2.136-.478,2.136-1.421a1.384,1.384,0,0,0-.655-1.171,6.207,6.207,0,0,0-1.991-.767,8.782,8.782,0,0,1-2.544-1.048,2.776,2.776,0,0,1-1.239-2.45,2.951,2.951,0,0,1,.593-1.9A4.764,4.764,0,0,1,726.968,77a7.807,7.807,0,0,1,4.116,1.162l-.855,1.765a7.111,7.111,0,0,0-3.469-1.07c-1.28,0-1.928.448-1.928,1.331a1.255,1.255,0,0,0,.635,1.077,5.9,5.9,0,0,0,1.91.68,9.73,9.73,0,0,1,2.713,1.126,2.851,2.851,0,0,1,1.239,2.507,2.987,2.987,0,0,1-.61,1.927,3.671,3.671,0,0,1-1.647,1.136,6.8,6.8,0,0,1-2.311.377" transform="translate(-627.217 -66.889)"/>
    <path id="Caminho_98" data-name="Caminho 98" d="M822.3,57.058v-6.7a3.287,3.287,0,0,0-.745-2.187,2.9,2.9,0,0,0-2.335-.892h-.013a3.869,3.869,0,0,0-2.738,1.282,4.077,4.077,0,0,0-.882,2.642v5.856H813.2V40.224h2.387v7.731l.248-.487a4.538,4.538,0,0,1,4.422-2.417,4.129,4.129,0,0,1,3.344,1.292,4.953,4.953,0,0,1,1.087,3.269v7.446Z" transform="translate(-706.448 -34.944)"/>
    <path id="Caminho_99" data-name="Caminho 99" d="M44.038,49.845a13.513,13.513,0,0,1-3.338-.386,4.323,4.323,0,0,1-2.3-1.554,5.7,5.7,0,0,1-.885-3.411V25.859l3.617,0V44.5a2.562,2.562,0,0,0,.46,1.564,1.652,1.652,0,0,0,1.022.635,12.165,12.165,0,0,0,1.428.072Z" transform="translate(-32.587 -22.464)" fill="blue"/>
    <path id="Caminho_100" data-name="Caminho 100" d="M99.533,23.984V5.345a2.562,2.562,0,0,0-.46-1.564,1.651,1.651,0,0,0-1.022-.635,12.133,12.133,0,0,0-1.428-.072V0A13.514,13.514,0,0,1,99.96.386a4.321,4.321,0,0,1,2.3,1.554,5.7,5.7,0,0,1,.885,3.411V23.986Z" transform="translate(-83.939)" fill="blue"/>
    <path id="Caminho_101" data-name="Caminho 101" d="M5.176,49.582a4.607,4.607,0,0,1-2.677-.91A14.3,14.3,0,0,1,0,46.138L2.57,44.13a12.861,12.861,0,0,0,.993,1.146,1.736,1.736,0,0,0,1.184.436,2.7,2.7,0,0,0,1.6-.633L21.866,32.947l2.365,3.021L8.715,48.1A6.031,6.031,0,0,1,5.3,49.58l-.121,0" transform="translate(0 -28.622)"/>
  </g>
</svg>
